<svg width="83" height="66" viewBox="0 0 83 66" fill="none" xmlns="http://www.w3.org/2000/svg">
<rect x="0.5" y="0.5" width="82" height="65" rx="9.5" fill="white" stroke="#F4F4F4"/>
<path d="M65.9534 52.1335C66.2354 52.1345 66.5148 52.0806 66.7756 51.9749C67.0363 51.8692 67.2732 51.7138 67.4725 51.5177V51.5141C67.6723 51.3181 67.8307 51.0852 67.9388 50.8288C68.0468 50.5724 68.1022 50.2976 68.102 50.02H69.9998C70.0002 50.5427 69.8957 51.0604 69.6923 51.5433C69.4889 52.0262 69.1905 52.4648 68.8143 52.834V52.8304C68.4392 53.2011 67.9933 53.4951 67.5023 53.6958C67.0113 53.8964 66.4848 53.9997 65.9531 53.9997V52.1335H65.9534Z" fill="black"/>
<path d="M68.1016 50.0206V14.9807H69.9993V50.0206H68.1016Z" fill="black"/>
<path d="M68.1019 14.9805C68.1026 14.7024 68.0474 14.4268 67.9395 14.1697C67.8316 13.9126 67.6731 13.679 67.4731 13.4823V13.4859C67.2737 13.2894 67.0368 13.1336 66.776 13.0274C66.5152 12.9213 66.2357 12.8668 65.9534 12.8671V11.0009C67.0703 11.0009 68.0818 11.4465 68.8145 12.1668V12.1704C69.1905 12.5391 69.4888 12.9772 69.6922 13.4595C69.8957 13.9418 70.0003 14.4589 70 14.9811H68.1019V14.9805ZM65.9534 12.8665H17.0469V11.0003H65.9534V12.8665ZM17.0469 12.8665C16.4534 12.8665 15.9157 13.1035 15.5272 13.4853C15.1388 13.867 14.8981 14.3962 14.8981 14.9802H13C13 13.8814 13.4533 12.8863 14.1855 12.1659C14.9176 11.4456 15.9297 11 17.0466 11V12.8665H17.0469ZM14.8978 14.9805V50.0204H13V14.9805H14.8978Z" fill="black"/>
<path d="M14.8978 50.0203C14.8978 50.6037 15.1385 51.1323 15.5269 51.5144C15.9154 51.8964 16.4531 52.1334 17.0466 52.1334V53.9999C16.5151 54.0005 15.9888 53.8978 15.4978 53.6977C15.0068 53.4976 14.5608 53.2041 14.1855 52.834C13.8092 52.4648 13.5109 52.0262 13.3074 51.5433C13.104 51.0604 12.9995 50.5427 13 50.02H14.8978V50.0203ZM17.0469 52.1334H65.9534V53.9999H17.0469V52.1334Z" fill="black"/>
<path fill-rule="evenodd" clip-rule="evenodd" d="M65.755 23.4182C65.755 20.8149 63.6111 18.7036 60.9647 18.6994V18.6985H43.5057V28.1425H60.9647V28.1374C63.6111 28.1329 65.755 26.0216 65.755 23.4182ZM65.755 33.4342C65.755 30.8309 63.6111 28.7199 60.9647 28.7154V28.7148H43.5057V38.1591H60.9647V38.1531C63.6111 38.1489 65.755 36.0382 65.755 33.4342ZM30.3505 28.7148V28.1425H43.1697V27.3466C43.1697 22.605 39.262 18.7614 34.4409 18.7614H26.2941C21.473 18.7614 17.5645 22.605 17.5645 27.3466V29.6362C17.5645 34.3775 21.473 38.2214 26.2941 38.2214H34.4409C39.262 38.2214 43.1697 34.3775 43.1697 29.6362V28.7148H30.3505ZM22.1911 46.1896C21.6823 47.2722 20.9374 47.8071 19.9287 47.8071C18.4961 47.8071 17.3838 46.6436 17.3838 45.1495C17.3838 43.6666 18.5056 42.4815 19.9003 42.4815C20.928 42.4815 21.8234 43.1305 22.1911 44.14H21.4935C21.1355 43.4706 20.5322 43.0685 19.8912 43.0685C18.8166 43.0685 17.9776 43.9755 17.9776 45.1397C17.9776 46.3032 18.8072 47.2207 19.8629 47.2207C20.5417 47.2207 21.0127 46.9217 21.4935 46.1896H22.1911ZM22.8468 44.1811C22.9126 42.9972 23.8431 42.4881 25.1342 42.4881C26.1305 42.4881 27.2139 42.762 27.2139 44.1128V46.7931C27.2139 47.0289 27.3452 47.1653 27.6188 47.1653C27.6953 47.1653 27.783 47.1455 27.8376 47.1266V47.6447C27.6898 47.674 27.5392 47.6874 27.3885 47.6846C26.688 47.6846 26.5787 47.3322 26.5787 46.8039H26.557C26.0757 47.4595 25.583 47.8311 24.4996 47.8311C23.4601 47.8311 22.6067 47.3711 22.6067 46.3538C22.6067 44.9347 24.1495 44.8856 25.6379 44.7291C26.207 44.6707 26.5244 44.6021 26.5244 44.0444C26.5244 43.2123 25.8566 43.0074 25.0465 43.0074C24.1931 43.0074 23.5582 43.3592 23.5366 44.1814H22.8468V44.1811ZM26.5241 44.9245H26.5022C26.4145 45.0719 26.1083 45.1199 25.9224 45.1492C24.7513 45.3359 23.2956 45.326 23.2956 46.314C23.2956 46.931 23.9086 47.313 24.5545 47.313C25.6053 47.313 26.5351 46.7155 26.5244 45.727V44.9245H26.5241ZM28.343 42.6058H29.0029V43.3373C29.2159 42.9522 29.7247 42.625 30.522 42.5747V43.1722C30.0714 43.2132 29.8618 43.2857 29.5793 43.5228C29.1811 43.841 29.045 44.1613 29.045 44.7276V47.6843H28.343V42.6058ZM43.1008 41.7297H43.8025V43.4814C44.2531 42.8225 44.9437 42.4818 45.8239 42.4818C47.3223 42.4818 48.5684 43.6768 48.5684 45.119C48.5684 46.6025 47.3433 47.8077 45.8346 47.8077C44.9651 47.8077 44.222 47.4478 43.7607 46.8087V47.6849H43.1008V41.7297ZM43.7501 45.1807C43.7501 46.3137 44.6826 47.221 45.8453 47.221C46.9865 47.221 47.9082 46.2834 47.9082 45.14C47.9082 43.9857 46.9966 43.0688 45.866 43.0688C44.6299 43.0685 43.7501 43.9552 43.7501 45.1807ZM48.8746 41.7297H49.5345V47.6846H48.8746V41.7297ZM50.6282 45.3869C50.6806 46.3964 51.5916 47.221 52.6491 47.221C53.3928 47.221 54.1682 46.7047 54.4402 46.026H55.1632C54.7967 47.0661 53.7493 47.8074 52.6491 47.8074C51.1413 47.8074 49.9369 46.6334 49.9369 45.1498C49.9369 43.6669 51.1312 42.4818 52.6284 42.4818C53.6131 42.4818 54.5243 43.0283 54.9957 43.8934C55.2159 44.295 55.2991 44.6764 55.3198 45.3869H50.6282ZM54.6182 44.7993C54.3677 43.7493 53.5924 43.0688 52.6491 43.0688C51.6547 43.0688 50.8272 43.7799 50.6493 44.7993H54.6182ZM61.132 45.3869C61.1844 46.3964 62.0953 47.221 63.1534 47.221C63.8971 47.221 64.6713 46.7047 64.944 46.026H65.6676C65.3004 47.0661 64.2524 47.8074 63.1534 47.8074C61.645 47.8074 60.4407 46.6334 60.4407 45.1498C60.4407 43.6669 61.635 42.4818 63.1327 42.4818C64.1168 42.4818 65.0281 43.0283 65.4994 43.8934C65.7203 44.295 65.8034 44.6764 65.8242 45.3869H61.132ZM65.1225 44.7993C64.8709 43.7493 64.0961 43.0688 63.1534 43.0688C62.1584 43.0688 61.3309 43.7799 61.153 44.7993H65.1225ZM34.0199 45.3869C34.0723 46.3964 34.9835 47.221 36.041 47.221C36.7847 47.221 37.5598 46.7047 37.8322 46.026H38.5549C38.1883 47.0661 37.1412 47.8074 36.041 47.8074C34.5332 47.8074 33.3289 46.6334 33.3289 45.1498C33.3289 43.6669 34.5229 42.4818 36.0206 42.4818C37.005 42.4818 37.9163 43.0283 38.3879 43.8934C38.6079 44.295 38.6913 44.6764 38.7124 45.3869H34.0199ZM38.0101 44.7993C37.7591 43.7493 36.984 43.0688 36.041 43.0688C35.0463 43.0688 34.2188 43.7799 34.0409 44.7993H38.0101Z" fill="black"/>
<path fill-rule="evenodd" clip-rule="evenodd" d="M31.7528 42.5876H33.5497V43.1636H31.7528V46.3602C31.7528 46.8055 31.8192 47.0659 32.3168 47.0988C32.516 47.0988 33.3511 47.0884 33.5497 47.0662V47.6538C33.3398 47.6538 32.5047 47.6754 32.2945 47.6754C31.3656 47.6754 31.0451 47.3709 31.0563 46.4147V43.1636H30.8809V42.5876H31.0563V41.7297H31.7528V42.5876ZM59.4407 42.6221V45.4244C59.4407 46.5523 58.8482 47.231 57.8513 47.237C56.8535 47.231 56.2618 46.5523 56.2618 45.4244V42.6221H55.6019V45.4244C55.6019 46.949 56.3874 47.8252 57.759 47.8252C57.791 47.8252 57.8196 47.821 57.8513 47.8198C57.8824 47.821 57.9107 47.8252 57.943 47.8252C59.3146 47.8252 60.1 46.949 60.1 45.4244V42.6221H59.4407Z" fill="black"/>
</svg>
