<svg width="77" height="66" viewBox="0 0 77 66" fill="none" xmlns="http://www.w3.org/2000/svg">
<rect x="0.5" y="0.5" width="76" height="65" rx="9.5" fill="white" stroke="#F4F4F4"/>
<path d="M22.2713 52.8013V50.1537C22.2713 49.1388 21.659 48.4769 20.6094 48.4769C20.0846 48.4769 19.5161 48.6535 19.1225 49.2271C18.8164 48.7417 18.379 48.4769 17.723 48.4769C17.2857 48.4769 16.8483 48.6093 16.4985 49.0947V48.5652H15.5801V52.8013H16.4985V50.4626C16.4985 49.7125 16.8921 49.3595 17.5043 49.3595C18.1166 49.3595 18.4228 49.7566 18.4228 50.4626V52.8013H19.3412V50.4626C19.3412 49.7125 19.7785 49.3595 20.347 49.3595C20.9593 49.3595 21.2654 49.7566 21.2654 50.4626V52.8013H22.2713ZM35.8724 48.5652H34.3855V47.2856H33.4671V48.5652H32.6361V49.4036H33.4671V51.3451C33.4671 52.3159 33.8607 52.8895 34.9103 52.8895C35.3039 52.8895 35.7412 52.7571 36.0473 52.5806L35.7849 51.7864C35.5225 51.9629 35.2164 52.007 34.9977 52.007C34.5604 52.007 34.3855 51.7422 34.3855 51.301V49.4036H35.8724V48.5652ZM43.657 48.4769C43.1322 48.4769 42.7823 48.7417 42.5636 49.0947V48.5652H41.6452V52.8013H42.5636V50.4185C42.5636 49.7125 42.8698 49.3153 43.4383 49.3153C43.6132 49.3153 43.8319 49.3595 44.0068 49.4036L44.2692 48.5211C44.0943 48.4769 43.8319 48.4769 43.657 48.4769ZM31.8927 48.9182C31.4553 48.6093 30.8431 48.4769 30.187 48.4769C29.1374 48.4769 28.4377 49.0065 28.4377 49.8448C28.4377 50.5508 28.9625 50.948 29.8809 51.0804L30.3183 51.1245C30.7993 51.2127 31.0617 51.3451 31.0617 51.5657C31.0617 51.8746 30.7119 52.0952 30.0996 52.0952C29.4873 52.0952 29.0062 51.8746 28.7001 51.654L28.2628 52.36C28.7438 52.713 29.3998 52.8895 30.0558 52.8895C31.2804 52.8895 31.9801 52.3159 31.9801 51.5216C31.9801 50.7715 31.4116 50.3743 30.5369 50.242L30.0996 50.1978C29.706 50.1537 29.3998 50.0655 29.3998 49.8007C29.3998 49.4918 29.706 49.3153 30.187 49.3153C30.7119 49.3153 31.2367 49.536 31.4991 49.6683L31.8927 48.9182ZM56.2959 48.4769C55.7711 48.4769 55.4213 48.7417 55.2026 49.0947V48.5652H54.2842V52.8013H55.2026V50.4185C55.2026 49.7125 55.5087 49.3153 56.0773 49.3153C56.2522 49.3153 56.4709 49.3595 56.6458 49.4036L56.9082 48.5211C56.7333 48.4769 56.4709 48.4769 56.2959 48.4769ZM44.5754 50.6832C44.5754 51.9629 45.45 52.8895 46.8058 52.8895C47.418 52.8895 47.8554 52.7571 48.2927 52.4041L47.8554 51.654C47.5055 51.9187 47.1556 52.0511 46.762 52.0511C46.0186 52.0511 45.4938 51.5216 45.4938 50.6832C45.4938 49.889 46.0186 49.3595 46.762 49.3153C47.1556 49.3153 47.5055 49.4477 47.8554 49.7125L48.2927 48.9623C47.8554 48.6093 47.418 48.4769 46.8058 48.4769C45.45 48.4769 44.5754 49.4036 44.5754 50.6832ZM53.0596 50.6832V48.5652H52.1412V49.0947C51.8351 48.6976 51.3978 48.4769 50.8292 48.4769C49.6484 48.4769 48.73 49.4036 48.73 50.6832C48.73 51.9629 49.6484 52.8895 50.8292 52.8895C51.4415 52.8895 51.8788 52.6689 52.1412 52.2717V52.8013H53.0596V50.6832ZM49.6922 50.6832C49.6922 49.9331 50.1732 49.3153 50.9604 49.3153C51.7039 49.3153 52.2287 49.889 52.2287 50.6832C52.2287 51.4334 51.7039 52.0511 50.9604 52.0511C50.1732 52.007 49.6922 51.4334 49.6922 50.6832ZM38.7151 48.4769C37.4905 48.4769 36.6159 49.3595 36.6159 50.6832C36.6159 52.007 37.4905 52.8895 38.7588 52.8895C39.3711 52.8895 39.9833 52.713 40.4644 52.3159L40.0271 51.654C39.6772 51.9187 39.2399 52.0952 38.8025 52.0952C38.234 52.0952 37.6655 51.8305 37.5343 51.0804H40.6393V50.7274C40.6831 49.3595 39.8959 48.4769 38.7151 48.4769ZM38.7151 49.2712C39.2836 49.2712 39.6772 49.6242 39.7647 50.2861H37.578C37.6655 49.7125 38.0591 49.2712 38.7151 49.2712ZM61.5002 50.6832V46.8884H60.5818V49.0947C60.2757 48.6976 59.8383 48.4769 59.2698 48.4769C58.089 48.4769 57.1706 49.4036 57.1706 50.6832C57.1706 51.9629 58.089 52.8895 59.2698 52.8895C59.8821 52.8895 60.3194 52.6689 60.5818 52.2717V52.8013H61.5002V50.6832ZM58.1327 50.6832C58.1327 49.9331 58.6138 49.3153 59.401 49.3153C60.1445 49.3153 60.6693 49.889 60.6693 50.6832C60.6693 51.4334 60.1445 52.0511 59.401 52.0511C58.6138 52.007 58.1327 51.4334 58.1327 50.6832ZM27.4318 50.6832V48.5652H26.5134V49.0947C26.2073 48.6976 25.77 48.4769 25.2014 48.4769C24.0206 48.4769 23.1022 49.4036 23.1022 50.6832C23.1022 51.9629 24.0206 52.8895 25.2014 52.8895C25.8137 52.8895 26.251 52.6689 26.5134 52.2717V52.8013H27.4318V50.6832ZM24.0206 50.6832C24.0206 49.9331 24.5017 49.3153 25.2889 49.3153C26.0324 49.3153 26.5572 49.889 26.5572 50.6832C26.5572 51.4334 26.0324 52.0511 25.2889 52.0511C24.5017 52.007 24.0206 51.4334 24.0206 50.6832Z" fill="black"/>
<path d="M45.3629 16.3977H31.5869V41.3728H45.3629V16.3977Z" fill="#FF5F00"/>
<path d="M32.4614 28.8852C32.4614 23.8108 34.823 19.31 38.4529 16.3977C35.7851 14.2796 32.4177 13 28.744 13C20.0411 13 13 20.1042 13 28.8852C13 37.6662 20.0411 44.7704 28.744 44.7704C32.4177 44.7704 35.7851 43.4908 38.4529 41.3727C34.823 38.5046 32.4614 33.9597 32.4614 28.8852Z" fill="#EB001B"/>
<path d="M63.949 28.8852C63.949 37.6662 56.9079 44.7704 48.2049 44.7704C44.5313 44.7704 41.1638 43.4908 38.4961 41.3727C42.1697 38.4605 44.4876 33.9597 44.4876 28.8852C44.4876 23.8108 42.126 19.31 38.4961 16.3977C41.1638 14.2796 44.5313 13 48.2049 13C56.9079 13 63.949 20.1483 63.949 28.8852Z" fill="#F79E1B"/>
</svg>
