<svg width="150" height="60" viewBox="0 0 150 60" fill="none" xmlns="http://www.w3.org/2000/svg">
<rect x="0.5" y="0.5" width="149" height="59" rx="9.5" fill="white" stroke="#F4F4F4"/>
<path fill-rule="evenodd" clip-rule="evenodd" d="M23.8316 21.061H32.3052C36.8548 21.061 38.5674 23.3608 38.3028 26.7395C37.8653 32.3198 34.4881 35.4036 30.0085 35.4036H27.7359C27.1213 35.4036 26.7079 35.8098 26.5416 36.9106L25.5814 43.3098C25.518 43.7248 25.2993 43.965 24.9712 44H19.6473C19.1464 44 18.9692 43.6178 19.0982 42.79L22.3442 22.2754C22.4733 21.452 22.9238 21.061 23.8316 21.061Z" fill="#009EE3"/>
<path fill-rule="evenodd" clip-rule="evenodd" d="M60.6096 20.6809C63.4684 20.6809 66.1063 22.2294 65.7454 26.0908C65.3079 30.6773 62.8472 33.2151 58.9647 33.2261H55.5744C55.0866 33.2261 54.8504 33.6214 54.7236 34.4382L54.0674 38.6032C53.9689 39.2322 53.6452 39.5445 53.1662 39.5445H50.0099C49.5068 39.5445 49.3319 39.2212 49.4434 38.5049L52.0485 21.8079C52.1775 20.9867 52.4859 20.6809 53.0481 20.6809H60.6096ZM55.4672 29.618H58.0373C59.645 29.5569 60.7146 28.4452 60.8218 26.4402C60.8874 25.2019 60.0496 24.3152 58.7176 24.3217L56.2962 24.3326L55.4672 29.6158V29.618ZM74.324 38.2625C74.6127 38.0026 74.9058 37.865 74.8643 38.1882L74.7614 38.9613C74.709 39.3654 74.8686 39.5816 75.247 39.5816H78.049C78.5214 39.5816 78.7511 39.3894 78.8692 38.6621L80.5972 27.8315C80.6825 27.2876 80.5512 27.0212 80.1378 27.0212H77.0537C76.776 27.0212 76.6425 27.1784 76.5682 27.6021L76.4544 28.2683C76.3954 28.6155 76.2357 28.6767 76.087 28.3251C75.5642 27.0889 74.2299 26.5341 72.3685 26.5778C68.042 26.6652 65.1264 29.9434 64.8158 34.1477C64.573 37.3976 66.9068 39.9507 69.9822 39.9507C72.211 39.9507 73.2106 39.2955 74.3327 38.2668L74.324 38.2625ZM71.977 36.596C70.1156 36.596 68.8185 35.1131 69.0898 33.2959C69.361 31.4788 71.0999 29.9959 72.9613 29.9959C74.8227 29.9959 76.1198 31.4766 75.8507 33.2959C75.5817 35.1153 73.8406 36.596 71.977 36.596ZM86.0873 26.9862H83.2547C82.6664 26.9862 82.4279 27.423 82.6161 27.9603L86.1464 38.2843L82.6707 43.194C82.382 43.6024 82.6051 43.9781 83.0141 43.9781H86.2098C86.3963 43.9995 86.5851 43.967 86.7537 43.8846C86.9224 43.8021 87.0638 43.6731 87.1613 43.5129L98.0169 27.9603C98.3515 27.482 98.194 26.9819 97.645 26.9797H94.62C94.1016 26.9797 93.8938 27.1828 93.5963 27.6152L89.0664 34.1674L87.0453 27.6021C86.9272 27.2046 86.6319 26.9862 86.0873 26.9862Z" fill="#113984"/>
<path fill-rule="evenodd" clip-rule="evenodd" d="M109.311 20.6809C112.172 20.6809 114.809 22.2294 114.446 26.0908C114.02 30.6773 111.548 33.2151 107.666 33.2261H104.275C103.788 33.2261 103.551 33.6214 103.425 34.4382L102.768 38.6032C102.668 39.2322 102.346 39.5445 101.867 39.5445H98.713C98.21 39.5445 98.035 39.2213 98.1465 38.5049L100.756 21.8079C100.883 20.9867 101.193 20.6809 101.756 20.6809H109.311ZM104.17 29.618H106.74C108.348 29.5569 109.418 28.4452 109.525 26.4402C109.591 25.2019 108.753 24.3152 107.419 24.3217L104.999 24.3326L104.17 29.6158V29.618ZM123.027 38.2625C123.316 38.0026 123.609 37.865 123.567 38.1882L123.465 38.9614C123.41 39.3654 123.572 39.5816 123.948 39.5816H126.752C127.225 39.5816 127.454 39.3894 127.57 38.6622L129.298 27.8315C129.386 27.2876 129.254 27.0212 128.839 27.0212H125.759C125.481 27.0212 125.346 27.1784 125.274 27.6021L125.16 28.2683C125.101 28.6155 124.941 28.6767 124.792 28.3251C124.27 27.0889 122.935 26.5342 121.063 26.5778C116.739 26.6652 113.823 29.9434 113.51 34.1477C113.27 37.3976 115.603 39.9507 118.677 39.9507C120.908 39.9507 121.905 39.2955 123.029 38.2668L123.027 38.2625ZM120.68 36.596C118.819 36.596 117.522 35.1131 117.793 33.296C118.064 31.4788 119.803 29.9959 121.664 29.9959C123.526 29.9959 124.823 31.4766 124.552 33.296C124.28 35.1153 122.542 36.596 120.68 36.596ZM133.614 39.5969H130.379C130.321 39.6001 130.264 39.5902 130.21 39.5681C130.157 39.546 130.11 39.5121 130.071 39.4691C130.033 39.426 130.005 39.3749 129.989 39.3195C129.974 39.2641 129.971 39.2059 129.981 39.1492L132.824 21.1614C132.852 21.0388 132.92 20.9291 133.017 20.8498C133.115 20.7706 133.236 20.7265 133.362 20.7246H136.599C136.656 20.7217 136.712 20.7313 136.764 20.7529C136.817 20.7744 136.863 20.8073 136.901 20.8491C136.939 20.8909 136.967 20.9406 136.984 20.9947C137 21.0487 137.004 21.1056 136.995 21.1614L134.152 39.1492C134.128 39.2748 134.061 39.3883 133.963 39.4706C133.865 39.5529 133.742 39.5991 133.614 39.6013V39.5969Z" fill="#009EE3"/>
<path fill-rule="evenodd" clip-rule="evenodd" d="M18.5204 14H27.0049C29.3935 14 32.226 14.0786 34.1224 15.7472C35.3889 16.8633 36.0538 18.6389 35.9007 20.5521C35.3801 27.019 31.5042 30.6423 26.3094 30.6423H22.1251C21.4142 30.6423 20.9417 31.1119 20.7405 32.3896L19.5725 39.8044C19.4981 40.2849 19.2881 40.5688 18.9163 40.6037H13.6821C13.1024 40.6037 12.8968 40.1669 13.0478 39.2016L16.8099 15.4109C16.9608 14.4543 17.488 14 18.5204 14Z" fill="#113984"/>
<path fill-rule="evenodd" clip-rule="evenodd" d="M20.8633 31.6361L22.3441 22.2754C22.4731 21.452 22.9237 21.061 23.8205 21.061H32.2941C33.6962 21.061 34.8314 21.2794 35.7194 21.6835C34.8664 27.4384 31.1392 30.638 26.255 30.638H22.0816C21.5217 30.638 21.1104 30.9176 20.8633 31.6361Z" fill="#172C70"/>
</svg>
