<svg width="138" height="45" viewBox="0 0 138 45" fill="none" xmlns="http://www.w3.org/2000/svg">
<path d="M24.7123 3.33821C25.1515 2.97768 25.8035 3.09786 26.0963 3.59192L37.9667 23.635C38.2062 24.0355 38.1131 24.5563 37.7538 24.8367L32.3908 29.1631C31.9517 29.5237 31.2996 29.4035 31.0068 28.9094L19.1231 8.87976C18.8836 8.47916 18.9767 7.95839 19.336 7.67798L24.7123 3.33821Z" fill="#2A4BA1"/>
<path d="M37.1815 23.1543H13.8C13.6004 23.1543 13.4141 23.2211 13.2677 23.3279L7.74503 26.2255C7.51881 26.3457 7.3325 26.5193 7.21273 26.7062C7.19942 26.7062 7.18611 26.7062 7.17281 26.7062H0.638766C0.292768 26.7062 0 26.9866 0 27.3205V27.6276C0 27.9748 0.27946 28.2418 0.638766 28.2418H7.17281C7.19942 28.2418 7.22604 28.2418 7.25265 28.2418C7.37242 28.4021 7.53211 28.549 7.73173 28.6558L13.2677 31.6068H13.281C13.4274 31.7136 13.6137 31.7804 13.8133 31.7804H13.9597H35.0922C35.5047 31.7804 35.864 31.5134 35.9838 31.1261L38.0864 24.3561C38.2594 23.7685 37.8203 23.1543 37.1815 23.1543Z" fill="#3B69DE"/>
<path d="M20.6266 0.827907C20.7331 0.41396 21.1057 0.133545 21.5315 0.133545H43.9016C44.5271 0.133545 44.9795 0.734435 44.7932 1.33533L42.664 8.31901C42.5443 8.70625 42.1849 8.98666 41.7724 8.98666H19.7084C19.0962 8.98666 18.6571 8.41248 18.8035 7.81159L20.6266 0.827907Z" fill="#3B69DE"/>
<path d="M54.4414 0.133545C54.8805 0.133545 55.2531 0.440667 55.3463 0.854613L62.1997 30.7923C62.3328 31.3798 61.8936 31.9407 61.2948 31.9407L54.0288 31.954C53.5897 31.954 53.2171 31.6602 53.1239 31.233L46.2439 1.28191C46.1108 0.694376 46.5499 0.133545 47.1488 0.133545H54.4414Z" fill="#2A4BA1"/>
<path d="M47.1356 0.0800781C46.723 0.0800781 46.3504 0.360494 46.2439 0.761087L37.6073 30.7655C37.4343 31.3664 37.8868 31.954 38.4989 31.954L45.7383 31.9673C46.1508 31.9673 46.5234 31.6869 46.6299 31.2997L55.3064 1.28186C55.4794 0.680968 55.027 0.0800781 54.4148 0.0800781H47.1356Z" fill="#3B69DE"/>
<path d="M62.6922 0.0800781C62.2797 0.0800781 61.907 0.360494 61.8006 0.761087L53.1639 30.7655C52.9909 31.3664 53.4434 31.954 54.0555 31.954L61.2949 31.9673C61.7074 31.9673 62.08 31.6869 62.1865 31.2997L70.8498 1.28186C71.0228 0.680968 70.5703 0.0800781 69.9582 0.0800781H62.6922Z" fill="#3B69DE"/>
<path d="M94.4308 0.0935059H87.2048C86.9653 0.0935059 86.7523 0.186978 86.5793 0.333862L68.5875 16.9451C68.0818 17.4125 68.2415 18.2537 68.8802 18.5074L74.4295 20.7107C74.7622 20.8442 75.1481 20.7641 75.4143 20.5238L77.2374 18.7745L81.2563 31.3665C81.3761 31.7537 81.7354 32.0208 82.1479 32.0208H87.1516C87.777 32.0208 88.2295 31.4066 88.0432 30.8057L82.6669 13.8205C82.6536 13.7671 82.627 13.7137 82.6004 13.6603L95.0829 1.70923C95.6817 1.1217 95.2692 0.0935059 94.4308 0.0935059Z" fill="#2A4BA1"/>
<path d="M74.0037 0.0800781C73.5912 0.0800781 73.2186 0.360494 73.1121 0.761087L64.4755 30.7655C64.3025 31.3664 64.7549 31.954 65.3671 31.954L72.6064 31.9673C73.0189 31.9673 73.3916 31.6869 73.498 31.2997L82.1613 1.28186C82.3343 0.680968 81.8818 0.0800781 81.2697 0.0800781H74.0037Z" fill="#3B69DE"/>
<path fill-rule="evenodd" clip-rule="evenodd" d="M102.07 0.133545H108.856C114.512 0.133545 119.103 4.74037 119.103 10.4154C119.103 16.0905 114.512 20.6973 108.856 20.6973H98.8757V14.822H108.856C111.278 14.822 113.248 12.8457 113.248 10.4154C113.248 7.98518 111.278 6.00892 108.856 6.00892H102.07V0.133545Z" fill="#2A4BA1"/>
<path d="M135.977 27.227H129.443C129.417 27.227 129.39 27.227 129.363 27.227C129.243 27.0667 129.084 26.9198 128.884 26.813L123.362 23.9421C123.069 23.7819 122.736 23.7418 122.43 23.7952V23.7685C122.217 23.7685 121.991 23.7685 121.778 23.7685C118.518 23.7819 116.175 23.7952 113.541 21.1513C109.695 17.2922 106.474 15.3026 103.028 14.7685L106.927 1.28186C107.1 0.680968 106.647 0.0800781 106.035 0.0800781H98.7691C98.3566 0.0800781 97.9839 0.360494 97.8775 0.761087L89.2408 30.7655C89.0678 31.3664 89.5203 31.954 90.1325 31.954L97.3718 31.9673C97.7843 31.9673 98.1569 31.6869 98.2634 31.2997L100.699 22.8738L100.712 23.1543C101.777 23.1008 103.374 23.0207 107.525 27.1869C112.383 32.0608 117.373 32.3145 121.166 32.3145C121.392 32.3145 121.618 32.3145 121.831 32.3145C122.044 32.3145 122.244 32.3145 122.457 32.3145V32.3011C122.763 32.3546 123.082 32.3011 123.375 32.1543L128.911 29.2433C129.137 29.1231 129.323 28.9495 129.443 28.7626C129.456 28.7626 129.47 28.7626 129.483 28.7626H136.017C136.363 28.7626 136.656 28.4822 136.656 28.1483V27.8412C136.616 27.494 136.336 27.227 135.977 27.227Z" fill="#3B69DE"/>
<path d="M49.6508 42.6365H48.7859V44.9332H48.2535V42.6365H47.3752V42.1157H49.6508V42.6365Z" fill="#3B69DE"/>
<path d="M59.6977 44.9332L59.1654 43.8516H58.8859V44.9332H58.3403V42.1157H59.4183C59.6844 42.1157 59.8973 42.1958 60.057 42.3561C60.2167 42.5163 60.2966 42.73 60.2966 42.9703C60.2966 43.1706 60.2433 43.3309 60.1369 43.4777C60.0304 43.6246 59.8973 43.7181 59.711 43.7715L60.2966 44.9199H59.6977V44.9332ZM58.8859 43.3843H59.3251C59.4582 43.3843 59.5646 43.3442 59.6445 43.2774C59.7243 43.2107 59.7642 43.1172 59.7642 42.997C59.7642 42.8769 59.7243 42.7834 59.6445 42.7166C59.5646 42.6498 59.4582 42.6098 59.3251 42.6098H58.8859V43.3843Z" fill="#3B69DE"/>
<path d="M70.1043 45C69.7982 45 69.5454 44.9065 69.3457 44.7196C69.1461 44.5326 69.053 44.2656 69.053 43.9317V42.1157H69.5853V43.8917C69.5853 44.0786 69.6252 44.2122 69.7184 44.319C69.8115 44.4125 69.9446 44.4659 70.1043 44.4659C70.264 44.4659 70.3971 44.4125 70.4902 44.319C70.5834 44.2255 70.6233 44.0786 70.6233 43.8917V42.1157H71.1556V43.9317C71.1556 44.2656 71.0624 44.5193 70.8628 44.7196C70.6632 44.9065 70.4104 45 70.1043 45Z" fill="#3B69DE"/>
<path d="M81.9349 42.7967L81.4558 42.9436C81.4425 42.8367 81.3893 42.7566 81.3094 42.6631C81.2296 42.583 81.1098 42.543 80.9501 42.543C80.817 42.543 80.7239 42.583 80.644 42.6498C80.5642 42.7166 80.5243 42.7967 80.5243 42.9035C80.5243 43.0771 80.6174 43.1839 80.817 43.224L81.203 43.3041C81.4425 43.3575 81.6288 43.451 81.7752 43.5979C81.9083 43.7447 81.9748 43.9317 81.9748 44.132C81.9748 44.359 81.8816 44.5726 81.7086 44.7462C81.5356 44.9198 81.2961 44.9999 80.99 44.9999C80.817 44.9999 80.6573 44.9732 80.5243 44.9198C80.3912 44.8664 80.2714 44.7996 80.1916 44.7062C80.1117 44.6127 80.0452 44.5192 79.992 44.4258C79.952 44.3189 79.9121 44.2255 79.9121 44.1186L80.4045 43.9851C80.4178 44.132 80.471 44.2655 80.5775 44.359C80.684 44.4658 80.8303 44.5059 81.0033 44.5059C81.1364 44.5059 81.2562 44.4792 81.3227 44.4124C81.4026 44.3456 81.4425 44.2655 81.4425 44.1587C81.4425 44.0786 81.4159 44.0118 81.3493 43.945C81.2961 43.8783 81.2163 43.8382 81.1098 43.8249L80.7239 43.7448C80.4976 43.6913 80.3246 43.5979 80.1916 43.4643C80.0585 43.3308 79.992 43.1439 79.992 42.9436C79.992 42.6899 80.0851 42.4896 80.2714 42.316C80.4577 42.1424 80.684 42.0623 80.9501 42.0623C81.1098 42.0623 81.2429 42.089 81.3759 42.129C81.4957 42.1691 81.6022 42.2358 81.6687 42.316C81.7486 42.3961 81.8018 42.4629 81.8417 42.543C81.8816 42.6231 81.9083 42.7032 81.9349 42.7967Z" fill="#3B69DE"/>
<path d="M92.754 42.6365H91.889V44.9332H91.3567V42.6365H90.4917V42.1157H92.754V42.6365Z" fill="#3B69DE"/>
</svg>
