<svg width="123" height="66" viewBox="0 0 123 66" fill="none" xmlns="http://www.w3.org/2000/svg">
<rect x="0.5" y="0.5" width="122" height="65" rx="9.5" fill="white" stroke="#F4F4F4"/>
<path fill-rule="evenodd" clip-rule="evenodd" d="M47.1494 47.5593L52.0803 18.4836H59.9481L55.0172 47.5593H47.1494Z" fill="#005098"/>
<path fill-rule="evenodd" clip-rule="evenodd" d="M83.5251 19.2016C81.2636 18.4015 78.8838 17.9952 76.4873 18C68.6949 18 63.2522 21.9308 63.209 27.585C63.1713 31.755 67.1052 34.0819 70.0853 35.4846C73.0653 36.8873 74.1808 37.8115 74.1431 39.0946C74.1431 41.0627 71.7181 41.9435 69.4494 41.9435C66.9016 42.017 64.3713 41.4961 62.0558 40.4212L61.0211 39.9373L59.9434 46.4342C61.7756 47.2769 65.1544 47.9619 68.6895 48C76.9615 48 82.2857 44.1073 82.3665 38.0562C82.4043 34.767 80.2972 32.2389 75.7651 30.1512C73.0222 28.83 71.357 27.9439 71.357 26.5847C71.357 25.3397 72.7851 24.0566 75.846 24.0566C77.864 24.0059 79.8696 24.3877 81.7307 25.1765L82.4474 25.4973L83.5251 19.2016Z" fill="#005098"/>
<path fill-rule="evenodd" clip-rule="evenodd" d="M103.679 18.5215H97.6059C95.7413 18.5215 94.3078 19.0652 93.4726 20.93L81.8164 47.5972H90.0614C90.0614 47.5972 91.414 43.9872 91.732 43.2478H101.788C102.025 44.2536 102.741 47.5972 102.741 47.5972H110L103.679 18.5215ZM93.9791 37.2511C94.615 35.62 97.1209 29.1503 97.1209 29.1503C97.04 29.2319 97.7567 27.4649 98.1555 26.383L98.6944 28.8676C98.6944 28.8676 100.203 35.8049 100.521 37.2511H93.9791Z" fill="#005098"/>
<path fill-rule="evenodd" clip-rule="evenodd" d="M40.5904 18.5215L32.8789 38.333L32.0814 34.3207C30.6479 29.6722 26.1536 24.6596 21.1904 22.1315L28.2229 47.5591H36.5326L48.8947 18.5215H40.5904Z" fill="#005098"/>
<path fill-rule="evenodd" clip-rule="evenodd" d="M25.7609 18.4836H13.0808L13 19.1252C22.8186 21.5282 29.3769 27.3455 32.0821 34.3209L29.3014 20.9682C28.8218 19.1252 27.4692 18.5598 25.7609 18.4836Z" fill="#F7A600"/>
</svg>
